# xmcd
#
# Track frame offsets:
#	150
#	25635
#	35805
#	48233
#	59581
#	74664
#	84602
#	103195
#	117805
#	126468
#	139856
#
# Disc length: 1970 seconds
#
# Revision: 1
# Processed by: cddbd v1.5.2PL0 Copyright (c) Steve Scherf et al.
# Submitted via: audiograbber 1.83.01
#
DISCID=a507b00b
DTITLE=Marty Robbins - More Gunfighter Ballads and Trail Songs
DYEAR=1960
DGENRE=Country
TTITLE0=San Angelo
TTITLE1=Prairie Fire
TTITLE2=Streets Of Laredo
TTITLE3=Song Of The Bandit
TTITLE4=I've Got No Use For The Women
TTITLE5=Five Brothers
TTITLE6=Little Joe The Wrangler
TTITLE7=Ride, Cowboy Ride
TTITLE8=This Peaceful Sod
TTITLE9=She Was Young And She Was Pertty
TTITLE10=My Love
EXTD=
EXTT0=
EXTT1=
EXTT2=
EXTT3=
EXTT4=
EXTT5=
EXTT6=
EXTT7=
EXTT8=
EXTT9=
EXTT10=
PLAYORDER=
